<svg width="80" height="80" viewBox="0 0 80 80" fill="none" xmlns="http://www.w3.org/2000/svg">
  <circle cx="20" cy="20" r="5" fill="#E3A73A"/>
  <circle cx="20" cy="40" r="5" fill="#E3A73A"/>
  <circle cx="20" cy="60" r="5" fill="#E3A73A"/>
  
  <circle cx="40" cy="15" r="5" fill="#E3A73A"/>
  <circle cx="40" cy="35" r="5" fill="#E3A73A"/>
  <circle cx="40" cy="55" r="5" fill="#E3A73A"/>
  
  <circle cx="60" cy="20" r="5" fill="#E3A73A"/>
  <circle cx="60" cy="40" r="5" fill="#E3A73A"/>
  <circle cx="60" cy="60" r="5" fill="#E3A73A"/>
  
  <path d="M25 20L35 15" stroke="#E3A73A" stroke-width="1.5"/>
  <path d="M25 20L35 35" stroke="#E3A73A" stroke-width="1.5"/>
  <path d="M25 20L35 55" stroke="#E3A73A" stroke-width="1.5"/>
  
  <path d="M25 40L35 15" stroke="#E3A73A" stroke-width="1.5"/>
  <path d="M25 40L35 35" stroke="#E3A73A" stroke-width="1.5"/>
  <path d="M25 40L35 55" stroke="#E3A73A" stroke-width="1.5"/>
  
  <path d="M25 60L35 15" stroke="#E3A73A" stroke-width="1.5"/>
  <path d="M25 60L35 35" stroke="#E3A73A" stroke-width="1.5"/>
  <path d="M25 60L35 55" stroke="#E3A73A" stroke-width="1.5"/>
  
  <path d="M45 15L55 20" stroke="#E3A73A" stroke-width="1.5"/>
  <path d="M45 35L55 20" stroke="#E3A73A" stroke-width="1.5"/>
  <path d="M45 55L55 20" stroke="#E3A73A" stroke-width="1.5"/>
  
  <path d="M45 15L55 40" stroke="#E3A73A" stroke-width="1.5"/>
  <path d="M45 35L55 40" stroke="#E3A73A" stroke-width="1.5"/>
  <path d="M45 55L55 40" stroke="#E3A73A" stroke-width="1.5"/>
  
  <path d="M45 15L55 60" stroke="#E3A73A" stroke-width="1.5"/>
  <path d="M45 35L55 60" stroke="#E3A73A" stroke-width="1.5"/>
  <path d="M45 55L55 60" stroke="#E3A73A" stroke-width="1.5"/>
</svg> 